# xmcd
# 
# Track frame offsets:
#     150
#     14255
#     27297
#     39552
#     54682
#     65310
#     76887
#     91720
#     101892
#     114902
#     124770
#     137912
#     149530
#     162352
#     174620
# 
# Disc length: 2491
# 
# Revision: 2
# Processed by: cddbd v1.5.2PL0 Copyright (c) Steve Scherf et al.
# Submitted via: fre:ac v1.0.17
# 
DISCID=c809b90f
DTITLE=Merle Haggard and The Strangers - The Very Best Of Merle Haggard
DYEAR=0
DGENRE=Country
TTITLE0=Always Wanting You
TTITLE1=Everybody's Had The Blues
TTITLE2=If We Make It Through December
TTITLE3=It's Not Love (But It's Not Bad)
TTITLE4=Old Man From The Mountain
TTITLE5=Carolyn
TTITLE6=It's All In The Movies
TTITLE7=Movin' On
TTITLE8=The Fightin' Side Of Me
TTITLE9=Mama Tried
TTITLE10=Okie From Muskogee
TTITLE11=Workin' Man Blues
TTITLE12=I Wonder If They Ever Think Of Me
TTITLE13=Things Aren't Funny Anymore
TTITLE14=The Roots Of My Raising
EXTD=
EXTT0=
EXTT1=
EXTT2=
EXTT3=
EXTT4=
EXTT5=
EXTT6=
EXTT7=
EXTT8=
EXTT9=
EXTT10=
EXTT11=
EXTT12=
EXTT13=
EXTT14=
PLAYORDER=
